# AST/ASF file generated using VICON BodyLanguage
# -----------------------------------------------
:version 1.10
:name VICON
:units
  mass 1.0
  length 0.45
  angle deg
:documentation
   .ast/.asf automatically generated from VICON data using
   VICON BodyBuilder and BodyLanguage model FoxedUp or BRILLIANT.MOD
:root
   order TX TY TZ RX RY RZ
   axis XYZ
   position 0 0 0  
   orientation 0 0 0 
:bonedata
  begin
     id 1 
     name lhipjoint
     direction 0.576517 -0.752066 0.319413 
     length 2.45433 
     axis 0 0 0  XYZ
  end
  begin
     id 2 
     name lfemur
     direction 0.34202 -0.939693 0  
     length 7.54459  
     axis 0 0 20  XYZ
    dof rx ry rz
    limits (-160.0 20.0)
           (-70.0 70.0)
           (-60.0 70.0)
  end
  begin
     id 3 
     name ltibia
     direction 0.34202 -0.939693 0   
     length 7.73986   
     axis 0 0 20   XYZ
    dof rx
    limits (-10.0 170.0)
  end
  begin
     id 4 
     name lfoot
     direction 0.090693 -0.249177 0.964202   
     length 2.28437   
     axis -90 7.62852e-016 20   XYZ
    dof rx rz
    limits (-45.0 90.0)
           (-70.0 20.0)
  end
  begin
     id 5 
     name ltoes
     direction 1.5356e-011 -4.21928e-011 1   
     length 1.14243   
     axis -90 7.62852e-016 20   XYZ
    dof rx
    limits (-90.0 20.0)
  end
  begin
     id 6 
     name rhipjoint
     direction -0.573937 -0.753736 0.320122   
     length 2.44889  
     axis 0 0 0  XYZ 
  end
  begin
     id 7 
     name rfemur
     direction -0.34202 -0.939693 0   
     length 7.50166   
     axis 0 0 -20   XYZ
    dof rx ry rz
    limits (-160.0 20.0)
           (-70.0 70.0)
           (-70.0 60.0)
  end
  begin
     id 8 
     name rtibia
     direction -0.34202 -0.939693 0   
     length 7.54266   
     axis 0 0 -20   XYZ
    dof rx
    limits (-10.0 170.0)
 end
 begin
     id 9 
     name rfoot
     direction -0.114017 -0.31326 0.942798   
     length 2.34212  
     axis -90 -7.62852e-016 -20   XYZ
    dof rx rz
    limits (-45.0 90.0)
           (-20.0 70.0)
  end
  begin
     id 10 
     name rtoes
     direction -1.53557e-011 -4.21867e-011 1   
     length 1.16246   
     axis -90 -7.62852e-016 -20   XYZ
    dof rx
    limits (-90.0 20.0)
  end
  begin
     id 11 
     name lowerback
     direction -0.0228371 0.999155 -0.034167   
     length 2.0537   
     axis 0 0 0   XYZ
    dof rx ry rz
    limits (-20.0 45.0)
           (-30.0 30.0)
           (-30.0 30.0)
  end
  begin
     id 12 
     name upperback
     direction 0.0198981 0.999794 0.00389455   
     length 2.05302   
     axis 0 0 0   XYZ
    dof rx ry rz
    limits (-20.0 45.0)
           (-30.0 30.0)
           (-30.0 30.0)
  end
  begin
     id 13 
     name thorax
     direction 0.0304566 0.99935 0.0192987   
     length 2.05315   
     axis 0 0 0   XYZ
    dof rx ry rz
    limits (-20.0 45.0)
           (-30.0 30.0)
           (-30.0 30.0)
  end
  begin
     id 14 
     name lowerneck
     direction -0.0196762 0.99417 0.106017   
     length 1.82056   
     axis 0 0 0   XYZ
    dof rx ry rz
    limits (-20.0 45.0)
           (-30.0 30.0)
           (-30.0 30.0)
  end
  begin
     id 15 
     name upperneck
     direction 0.00517787 0.9802 -0.197944   
     length 1.83835   
     axis 0 0 0   XYZ
    dof rx ry rz
    limits (-20.0 45.0)
           (-30.0 30.0)
           (-30.0 30.0)
  end
  begin
     id 16
     name head
     direction 0.00211419 0.996945 -0.078081  
     length 1.85629  
     axis 0 0 0   XYZ
    dof rx ry rz
    limits (-20.0 45.0)
           (-30.0 30.0)
           (-30.0 30.0)
  end
  begin
     id 17 
     name lclavicle
     direction 0.930001 0.365811 -0.0357824  
     length 3.81961  
     axis 0 0 0   XYZ
    dof ry rz
    limits (-20.0 10.0)
           (0.0 20.0)
  end
  begin
     id 18 
     name lhumerus
     direction 1 -4.48968e-011 -3.06644e-027   
     length 5.14507   
     axis 180 -30 -90   XYZ
    dof rx ry rz
    limits (-60.0 90.0)
           (-90.0 90.0)
           (-90.0 90.0)
  end
  begin
     id 19
     name lradius
     direction 1 -4.48965e-011 9.06925e-028   
     length 3.50646   
     axis 180 -30 -90   XYZ
    dof rx
    limits (-10.0 170.0)
  end
  begin
     id 20
     name lwrist
     direction 1 -4.48957e-011 1.03922e-027   
     length 1.75323   
     axis -2.56395e-016 90 90   XYZ
    dof ry
    limits (-180.0 0.0)
 end
  begin
     id 21 
     name lhand
     direction 1 -4.48967e-011 2.08017e-027   
     length 0.629969   
     axis -1.32723e-015 90 90   XYZ
    dof rx rz
    limits (-90.0 90.0)
           (-45.0 45.0)
  end
  begin
     id 22 
     name lfingers
     direction 1 -4.49089e-011 4.20095e-027   
     length 0.507897   
     axis -2.6545e-015 90 90   XYZ
    dof rx
    limits (0.0 90.0)
  end
  begin
     id 23
     name lthumb
     direction 0.707107 -6.35001e-011 0.707107   
     length 0.729241   
     axis -90 45 5.05613e-014   XYZ
    dof rx rz
    limits (-45.0 45.0)
           (-45.0 45.0)
  end
  begin
     id 24 
     name rclavicle
     direction -0.881882 0.464123 -0.0829113   
     length 3.47515  
     axis 0 0 0   XYZ 
    dof ry rz
    limits (-10.0 20.0)
           (-20.0 0.0)
  end
  begin
     id 25 
     name rhumerus
     direction -1 -4.48961e-011 -1.55672e-027  
     length 5.232   
     axis 180 30 90   XYZ
    dof rx ry rz
    limits (-90.0 60.0)
           (-90.0 90.0)
           (-90.0 90.0)
  end
  begin
     id 26 
     name rradius
     direction -1 -4.48963e-011 6.18178e-029   
     length 3.65641   
     axis 180 30 90   XYZ
    dof rx
    limits (-10.0 170.0)
  end
  begin
     id 27 
     name rwrist
     direction -1 -4.48982e-011 1.04136e-027   
     length 1.8282   
     axis -2.56395e-016 -90 -90   XYZ
    dof ry
    limits (-180.0 0.0)
  end
  begin
     id 28
     name rhand
     direction -1 -4.48929e-011 2.07378e-027   
     length 0.656807   
     axis -1.32723e-015 -90 -90   XYZ
    dof rx rz
    limits (-90.0 90.0)
           (-45.0 45.0)
  end
  begin
     id 29
     name rfingers
     direction -1 -4.489e-011 4.13816e-027   
     length 0.529535   
     axis -2.6545e-015 -90 -90   XYZ
    dof rx
    limits (0.0 90.0)
  end
  begin
     id 30
     name rthumb
     direction -0.707107 -6.34843e-011 0.707107   
     length 0.760309   
     axis -90 -45 -5.05613e-014   XYZ
    dof rx rz
    limits (-45.0 45.0)
           (-45.0 45.0)
  end
:hierarchy
  begin
    root lhipjoint rhipjoint lowerback
    lhipjoint lfemur
    lfemur ltibia
    ltibia lfoot
    lfoot ltoes
    rhipjoint rfemur
    rfemur rtibia
    rtibia rfoot
    rfoot rtoes
    lowerback upperback
    upperback thorax
    thorax lowerneck lclavicle rclavicle
    lowerneck upperneck
    upperneck head
    lclavicle lhumerus
    lhumerus lradius
    lradius lwrist
    lwrist lhand lthumb
    lhand lfingers
    rclavicle rhumerus
    rhumerus rradius
    rradius rwrist
    rwrist rhand rthumb
    rhand rfingers
  end

#!OML:ASF H:\ManfredETheater\Project 1\Capture day 1\Session 1\subject.ASF
:FULLY-SPECIFIED
:DEGREES
1
root -10.8737 16.5534 -42.8553 25.8139 -4.99146 -9.40397
lowerback 16.962 2.10325 1.02448
upperback 0.932067 3.0384 0.919323
thorax -8.51233 1.43046 -0.317167
lowerneck -18.825 -0.844137 0.0931292
upperneck -3.33941 -1.22199 2.49425
head 2.17175 -0.519718 0.706197
rclavicle -2.38542e-014 1.03368e-014
rhumerus -36.6744 12.4902 -95.1643
rradius 87.3965
rwrist -10.2782
rhand -24.8867 4.24319
rfingers 7.12502
rthumb 1.62099 -25.7304
lclavicle -2.38542e-014 1.03368e-014
lhumerus -56.6053 -11.0003 94.4176
lradius 79.0969
lwrist 22.6502
lhand -22.9672 -9.05016
lfingers 7.12502
lthumb 3.47478 20.9013
rfemur -6.47238 -3.0574 23.1774
rtibia 55.1355
rfoot 17.3193 -7.11867
rtoes 14.3402
lfemur -64.7526 5.4057 -21.9804
ltibia 70.4573
lfoot -21.4901 -7.33348
ltoes 15.8334
2
root -10.9024 16.5418 -42.3963 25.529 -4.79655 -7.88958
lowerback 17.4044 1.89657 -0.431013
upperback 0.828699 2.46022 0.596842
thorax -8.92316 1.20199 0.281772
lowerneck -18.6993 -0.741082 0.169879
upperneck -3.46581 -1.09913 2.54752
head 2.10389 -0.459004 0.719162
rclavicle -8.74653e-015 -1.03368e-014
rhumerus -37.5186 9.89397 -94.9835
rradius 82.3136
rwrist -10.9472
rhand -25.6353 4.60192
rfingers 7.12502
rthumb 0.897944 -25.3759
lclavicle -8.74653e-015 -1.03368e-014
lhumerus -53.1286 -11.3276 94.7142
lradius 76.7227
lwrist 22.1744
lhand -23.915 -8.94457
lfingers 7.12502
lthumb 2.55941 21.0198
rfemur -9.5879 -4.53718 21.6047
rtibia 60.1913
rfoot 14.6427 -7.72543
rtoes 16.694
lfemur -62.5 4.92094 -24.0055
ltibia 70.437
lfoot -23.0729 -5.96006
ltoes 16.1305
3
root -10.924 16.5333 -41.9463 25.3327 -4.27677 -6.07503
lowerback 17.7055 1.5401 -1.84538
upperback 0.767124 1.67035 0.20164
thorax -9.17743 0.876247 0.846272
lowerneck -18.5967 -0.640766 0.28155
upperneck -3.67562 -0.986401 2.65264
head 2.01184 -0.402694 0.741753
rclavicle -1.31198e-014 1.59028e-015
rhumerus -38.1444 7.15888 -94.4687
rradius 77.1767
rwrist -11.7852
rhand -26.762 4.04376
rfingers 7.12502
rthumb -0.190256 -25.9359
lclavicle -1.31198e-014 1.59028e-015
lhumerus -49.4786 -11.6976 94.8514
lradius 74.2935
lwrist 21.2287
lhand -24.4417 -8.80208
lfingers 7.12502
lthumb 2.05078 21.1678
rfemur -12.8298 -6.49912 19.8368
rtibia 64.8254
rfoot 12.2435 -8.35015
rtoes 17.2881
lfemur -60.3301 3.83622 -25.8482
ltibia 70.2841
lfoot -24.116 -5.48016
ltoes 17.203
4
root -10.9435 16.5136 -41.482 25.1198 -3.66429 -4.51456
lowerback 17.955 1.16607 -3.01057
upperback 0.680053 0.90844 -0.079596
thorax -9.40287 0.560783 1.39348
lowerneck -18.4537 -0.558491 0.197467
upperneck -3.82164 -0.862203 2.93762
head 1.93825 -0.332141 0.858144
rclavicle 1.39149e-014 -1.59028e-015
rhumerus -39.1031 4.48742 -93.5561
rradius 72.3713
rwrist -12.6367
rhand -27.0787 3.98968
rfingers 7.12502
rthumb -0.496144 -25.9895
lclavicle 1.39149e-014 -1.59028e-015
lhumerus -45.8789 -11.8853 94.8739
lradius 71.8102
lwrist 19.989
lhand -24.5095 -9.24548
lfingers 7.12502
lthumb 1.98533 20.725
rfemur -15.9691 -8.45629 18.3506
rtibia 69.1264
rfoot 9.41629 -9.25189
rtoes 18.3704
lfemur -57.9652 2.63199 -27.0272
ltibia 70.1319
lfoot -25.1564 -5.81259
ltoes 18.5093
5
root -10.9518 16.5091 -41.0325 25.0134 -3.20438 -3.85105
lowerback 18.3574 1.003 -3.47578
upperback 0.520767 0.573684 -0.140802
thorax -9.79289 0.428991 1.67437
lowerneck -18.6695 -0.723652 -0.205408
upperneck -3.60478 -1.02356 3.57659
head 2.06529 -0.38141 1.12877
rclavicle -1.15295e-014 -2.38542e-015
rhumerus -40.3064 2.39123 -92.2457
rradius 68.4701
rwrist -14.7575
rhand -28.7634 3.77797
rfingers 7.12502
rthumb -2.12325 -26.1912
lclavicle -1.15295e-014 -2.38542e-015
lhumerus -42.9114 -11.4997 94.9923
lradius 71.3103
lwrist 17.5318
lhand -24.816 -9.49277
lfingers 7.12502
lthumb 1.68928 20.4803
rfemur -19.8751 -9.57854 17.9267
rtibia 73.0963
rfoot 6.47714 -9.70261
rtoes 18.807
lfemur -55.9187 1.86153 -26.9696
ltibia 69.9863
lfoot -26.4186 -6.94902
ltoes 15.486
6
root -10.9652 16.4739 -40.5872 24.9882 -2.72874 -2.89817
lowerback 18.5778 0.772318 -4.14425
upperback 0.394385 0.102574 -0.277525
thorax -10.0326 0.240656 2.02983
lowerneck -18.7905 -0.778742 -0.411681
upperneck -3.55989 -1.06582 3.91399
head 2.10997 -0.386483 1.27454
rclavicle 8.74653e-015 4.77083e-015
rhumerus -41.5629 -0.0393189 -90.7502
rradius 64.6221
rwrist -15.7222
rhand -29.5699 3.72148
rfingers 7.12502
rthumb -2.90213 -26.2385
lclavicle 8.74653e-015 4.77083e-015
lhumerus -39.9835 -11.3384 95.1908
lradius 70.7443
lwrist 15.838
lhand -25.0986 -9.76431
lfingers 7.12502
lthumb 1.41637 20.2107
rfemur -23.5287 -11.0102 17.1652
rtibia 76.8812
rfoot 4.00486 -10.1406
rtoes 18.8474
lfemur -53.9267 1.10334 -27.566
ltibia 69.8654
lfoot -27.4555 -7.548
ltoes 15.0732
7
root -10.9758 16.4327 -40.1429 25.0333 -2.28768 -2.1324
lowerback 18.7081 0.56899 -4.63645
upperback 0.259983 -0.28889 -0.35719
thorax -10.2288 0.08463 2.32839
lowerneck -18.9715 -0.855071 -0.633848
upperneck -3.48967 -1.13258 4.1996
head 2.17485 -0.404459 1.40529
rclavicle -1.47101e-014 8.74653e-015
rhumerus -43.0839 -2.26025 -88.987
rradius 61.3851
rwrist -16.4041
rhand -30.2466 3.86994
rfingers 7.12502
rthumb -3.55563 -26.0801
lclavicle -1.47101e-014 8.74653e-015
lhumerus -37.4187 -11.0655 95.5212
lradius 71.1194
lwrist 14.31
lhand -25.2629 -10.0622
lfingers 7.12502
lthumb 1.2577 19.9139
rfemur -27.3772 -12.2927 16.655
rtibia 80.3735
rfoot 1.63776 -10.4089
rtoes 18.1644
lfemur -52.0158 0.483812 -27.9695
ltibia 69.746
lfoot -28.4123 -8.37029
ltoes 14.7589
8
root -10.9838 16.3877 -39.6962 25.1252 -1.91823 -1.52369
lowerback 18.7517 0.399691 -5.00258
upperback 0.120065 -0.600758 -0.387971
thorax -10.384 -0.0381166 2.58805
lowerneck -19.1968 -0.93485 -0.844968
upperneck -3.40472 -1.2037 4.38969
head 2.25202 -0.427472 1.50282
rclavicle 1.19271e-014 7.95139e-015
rhumerus -44.9185 -4.14577 -87.0443
rradius 58.8957
rwrist -16.6539
rhand -30.808 4.18708
rfingers 7.12502
rthumb -4.09777 -25.7533
lclavicle 1.19271e-014 7.95139e-015
lhumerus -35.2705 -10.7845 96.0342
lradius 72.5473
lwrist 13.2932
lhand -25.3081 -10.3741
lfingers 7.12502
lthumb 1.21404 19.6022
rfemur -31.3773 -13.3946 16.3582
rtibia 83.5378
rfoot -0.592626 -10.511
rtoes 16.7187
lfemur -50.1275 0.064254 -28.2725
ltibia 69.5803
lfoot -29.2728 -9.30838
ltoes 14.634
